<svg width="1610" height="337" viewBox="0 0 1610 337" fill="none" xmlns="http://www.w3.org/2000/svg">
<path d="M349.596 287.761C349.596 292.215 349.778 295.834 350.049 298.617C350.683 301.494 351.771 303.628 353.311 305.206C355.122 306.783 357.931 308.175 361.645 309.474C365.359 310.402 370.433 311.33 376.865 312.35V329.888H262.628V312.35C268.788 311.423 273.499 310.495 276.941 309.474C280.655 308.175 283.373 306.597 285.276 304.742C287.088 302.886 288.356 300.659 288.99 298.154C289.624 295.277 289.896 291.844 289.896 287.761V190.702C289.896 180.959 288.99 173.072 287.178 167.04C285.366 161.009 282.92 156.462 279.84 153.307C276.76 150.152 273.408 148.111 269.694 147.183C265.979 145.884 262.356 145.327 258.642 145.327C255.833 145.327 252.209 146.255 247.589 148.204C243.331 149.781 238.802 152.936 234.272 157.669C230.014 162.401 226.3 168.989 223.22 177.526C220.14 185.691 218.6 196.455 218.6 209.724V285.441C218.6 290.452 218.781 294.628 219.053 297.782C219.687 300.659 220.774 302.979 222.314 304.834C224.126 306.69 226.934 308.268 230.648 309.567C234.363 310.495 239.436 311.423 245.868 312.443V329.981H131.631V312.443C137.791 311.515 142.502 310.587 145.944 309.567C149.659 308.268 152.377 306.69 154.279 304.834C156.091 302.607 157.359 299.917 157.993 296.762C158.627 293.607 158.899 289.71 158.899 284.884V190.702C158.899 172.701 155.819 160.731 149.659 154.699C143.861 148.389 136.795 145.235 128.46 145.235C125.108 145.235 121.122 146.07 116.502 147.647C111.882 149.225 107.443 152.658 103.185 158.04C98.927 163.422 95.2127 171.494 92.1325 182.165C89.0524 192.558 87.5123 206.755 87.5123 224.756V285.348C87.5123 290.359 87.6935 294.535 87.9653 297.69C88.5994 300.566 89.6865 302.886 91.2266 304.742C93.0385 306.597 95.8468 308.175 99.5611 309.474C103.275 310.402 108.349 311.33 114.781 312.35V329.888H0V312.35C6.16029 311.423 10.8711 310.495 14.3136 309.474C18.0279 308.175 20.7457 306.597 22.6481 304.742C24.46 302.515 25.7283 300.009 26.3624 297.133C26.9966 293.978 27.2683 289.988 27.2683 285.256V178.732C27.2683 170.195 26.9966 163.236 26.3624 157.947C25.7283 152.565 24.5506 148.482 22.6481 145.606C20.8363 142.451 18.0279 140.224 14.3136 139.018C10.5993 137.44 5.88851 136.327 0 135.677V119.624C7.97214 119.346 15.3101 118.975 22.1046 118.696C28.899 118.418 35.4217 117.861 41.9443 117.305C48.3764 116.655 54.8084 116.006 61.3311 115.449C67.7632 114.521 74.5576 113.593 81.6238 112.572V156.555H84.8851C95.0315 138.925 105.903 127.233 117.589 121.573C129.547 115.542 141.687 112.572 154.007 112.572C158.265 112.572 163.248 113.222 168.774 114.428C174.3 115.356 179.826 117.583 185.352 121.016C190.878 124.171 195.952 128.903 200.572 135.213C205.192 141.523 208.544 149.689 210.718 159.803H213.979C222.586 143.1 232.098 131.13 242.516 123.8C252.934 116.191 266.161 112.479 282.105 112.479C295.966 112.479 307.29 114.985 316.168 120.088C325.046 124.821 332.021 130.945 336.913 138.554C341.805 146.162 345.248 154.328 347.06 163.143C348.872 171.958 349.778 180.309 349.778 188.197V287.575L349.596 287.761Z" fill="#181818"/>
<path d="M583.142 264.546C578.25 278.093 572.089 289.506 564.751 298.6C557.685 307.786 549.713 315.024 540.835 320.406C532.229 325.788 522.988 329.592 513.204 331.726C503.42 334.231 493.364 335.531 483.309 335.531C472.256 335.531 460.932 333.489 449.246 329.406C437.559 325.324 426.869 318.828 416.995 310.013C407.483 301.198 399.692 289.785 393.531 275.959C387.371 261.762 384.291 244.689 384.291 224.831C384.291 206.83 386.918 190.87 392.082 177.044C397.608 162.847 405.127 150.97 414.64 141.505C424.152 132.041 435.023 124.896 447.343 120.164C459.936 115.153 473.434 112.555 487.838 112.555C517.009 112.555 539.929 122.298 556.507 141.877C573.086 161.084 581.42 188.55 581.42 224.182H448.793C448.793 232.347 449.518 241.348 451.058 251.184C452.87 260.927 455.95 270.113 460.298 278.65C464.918 287.187 470.897 294.424 478.235 300.456C485.936 306.116 495.539 308.992 507.225 308.992C514.563 308.992 521.086 307.693 526.612 305.188C532.41 302.311 537.664 298.878 542.284 294.795C546.905 290.342 550.891 285.516 554.243 280.135C557.594 274.753 560.493 269.556 563.03 264.546H583.323H583.142ZM515.016 205.902C517.462 205.902 519.002 205.438 519.636 204.51C520.542 203.211 520.995 199.963 520.995 194.582C520.995 189.849 520.542 183.818 519.636 176.58C519.002 169.343 517.462 162.198 515.016 155.238C512.57 148.001 509.037 141.784 504.417 136.773C500.159 131.762 494.089 129.164 486.479 129.164C478.87 129.164 472.981 131.206 468.089 135.288C463.469 139.371 459.755 144.939 457.037 151.898C454.591 158.857 452.779 167.023 451.511 176.487C450.242 185.674 449.336 195.417 448.793 205.809H515.107L515.016 205.902Z" fill="#181818"/>
<path d="M683.972 119.259H731.895V137.724H683.972V282.107C684.243 286.189 684.877 289.808 685.783 292.963C687.052 296.118 688.682 298.809 690.857 301.036C693.031 302.892 695.93 303.913 699.644 303.913C704.264 303.913 708.703 302.521 712.961 299.644C717.581 296.489 722.02 290.458 726.278 281.643L739.142 289.716C732.982 303.263 725.191 314.305 715.679 322.842C706.438 331.379 693.756 335.647 677.449 335.647C665.491 335.647 655.978 333.605 648.912 329.523C641.846 325.069 636.501 318.945 632.787 311.057C629.073 302.892 626.627 293.056 625.449 281.736C624.543 270.044 624.09 257.146 624.09 242.949V137.91H589.574V119.445C600.898 117.867 610.773 114.527 619.017 109.516C627.623 104.134 634.961 97.6389 641.121 90.1228C647.282 82.514 652.445 74.0701 656.794 64.6054C661.052 54.8624 664.947 44.377 668.299 33.335H683.972V119.445V119.259Z" fill="#181818"/>
<path d="M951.037 284.421C951.037 290.73 951.762 295.741 953.302 299.545C954.842 303.35 957.922 305.206 962.542 305.206H967.616C968.884 304.927 969.88 304.742 970.877 304.742L974.591 316.062C970.333 321.073 964.898 325.712 958.466 329.795C952.034 333.6 944.514 335.455 935.908 335.455C925.762 335.455 917.337 332.95 910.542 327.847C903.748 322.836 898.584 314.114 894.87 301.772C885.992 311.887 875.03 320.052 862.166 326.362C849.574 332.393 835.622 335.363 820.222 335.363C799.385 335.363 784.166 330.352 774.654 320.238C765.413 310.124 760.793 297.69 760.793 282.843C760.793 269.574 764.779 258.346 772.751 249.253C780.723 240.067 790.87 232.643 803.19 226.983C815.783 220.952 829.734 216.219 845.135 212.786C860.807 209.353 876.117 206.291 891.156 203.785V192.929C891.156 177.433 889.434 165.463 886.082 156.926C882.73 148.389 878.563 142.08 873.671 137.997C868.779 133.914 863.525 131.409 857.999 130.388C852.473 129.46 847.399 128.996 842.779 128.996C833.539 128.996 826.925 129.924 822.939 131.873C818.953 133.729 816.96 136.141 816.96 139.018C816.96 141.245 817.413 143.286 818.319 145.142C819.587 146.719 820.765 148.482 822.033 150.338C823.573 152.194 824.842 154.421 825.748 156.926C827.016 159.432 827.56 162.308 827.56 165.463C827.56 171.773 825.838 177.619 822.486 183C819.134 188.382 812.068 191.073 801.288 191.073C793.316 191.073 786.249 188.846 780.089 184.485C774.291 180.031 771.302 172.793 771.302 162.679C771.302 154.142 773.566 146.719 778.187 140.409C782.807 134.1 788.967 128.903 796.577 124.821C804.277 120.738 812.974 117.676 822.849 115.82C832.995 113.593 843.413 112.479 854.194 112.479C874.758 112.479 891.337 114.985 903.929 120.088C916.793 125.099 926.668 132.522 933.372 142.358C940.438 152.101 945.058 164.257 947.232 178.825C949.678 193.022 950.947 209.631 950.947 228.561V284.421H951.037ZM891.156 219.096C884.089 220.673 876.389 222.436 868.145 224.292C860.173 225.87 852.654 228.561 845.587 232.365C838.793 235.798 832.995 240.716 828.103 247.026C823.483 253.336 821.218 261.872 821.218 272.543C821.218 284.513 823.845 293.885 829.009 300.473C834.263 306.783 841.33 309.938 850.208 309.938C861.894 309.938 871.588 305.206 879.197 295.741C887.169 286.276 891.156 272.079 891.156 253.15V219.096Z" fill="#181818"/>
<path d="M1079.14 285.424C1079.14 290.435 1079.32 294.61 1079.59 297.765C1080.23 300.642 1081.31 302.961 1082.85 304.817C1084.67 306.673 1087.48 308.251 1091.19 309.55C1094.9 310.477 1099.98 311.405 1106.41 312.426V329.964H992.172V312.426C998.332 311.498 1003.04 310.57 1006.49 309.55C1010.2 308.251 1012.92 306.673 1014.82 304.817C1016.63 302.59 1017.9 300.085 1018.53 297.208C1019.17 294.054 1019.44 290.064 1019.44 285.331V66.2525C1019.44 57.7158 1019.17 50.7565 1018.53 45.4674C1017.9 40.0856 1016.72 35.8172 1014.82 32.6623C1013.01 29.2291 1010.2 26.8165 1006.49 25.5174C1002.77 23.94 998.06 22.8265 992.172 22.177V6.12418C1009.66 5.47465 1025.15 4.82511 1038.74 4.26837C1052.23 3.61884 1065.73 2.22698 1079.23 0V285.424H1079.14Z" fill="#181818"/>
<path d="M1131.14 119.7C1148.62 119.421 1163.66 118.586 1176.25 117.287C1188.84 115.71 1201.44 114.132 1214.03 112.555L1218.2 152.269H1221.46C1229.43 139.371 1238.76 129.535 1249.54 122.947C1260.59 115.988 1274.27 112.555 1290.58 112.555C1304.44 112.555 1315.58 115.06 1324.19 120.164C1332.8 124.896 1339.41 131.02 1344.03 138.629C1348.92 146.238 1352.18 154.403 1353.72 163.218C1355.26 171.755 1355.99 179.828 1355.99 187.344V285.331C1355.99 290.063 1356.17 294.053 1356.44 297.208C1356.71 300.363 1357.8 303.054 1359.7 305.281C1361.51 307.137 1364.32 308.714 1368.04 310.013C1371.75 310.941 1376.82 311.776 1383.26 312.333V329.87H1269.02V312.333C1275.18 311.683 1279.89 310.941 1283.33 310.013C1287.05 309.085 1289.76 307.601 1291.67 305.745C1293.48 303.889 1294.75 301.291 1295.38 298.136C1296.02 294.981 1296.29 290.713 1296.29 285.331V198.757C1296.29 187.993 1295.56 179.178 1294.02 172.219C1292.48 165.26 1290.22 159.878 1287.14 156.166C1284.33 152.083 1280.8 149.393 1276.54 148.094C1272.55 146.516 1268.11 145.681 1263.22 145.681C1255.25 145.681 1248.36 148.093 1242.47 152.826C1236.95 157.28 1232.33 162.94 1228.61 169.899C1225.26 176.859 1222.64 184.56 1220.82 193.097C1219.28 201.634 1218.56 209.799 1218.56 217.686V285.331C1218.56 290.342 1218.74 294.517 1219.01 297.672C1219.65 300.549 1220.73 302.868 1222.27 304.724C1224.08 306.58 1226.89 308.157 1230.61 309.456C1234.32 310.384 1239.39 311.312 1245.83 312.333V329.87H1131.59V312.333C1137.75 311.405 1142.46 310.477 1145.9 309.456C1149.62 308.157 1152.34 306.58 1154.24 304.724C1156.05 302.497 1157.32 299.992 1157.95 297.115C1158.59 293.96 1158.86 289.97 1158.86 285.238V178.714C1158.86 170.178 1158.59 163.218 1157.95 157.929C1157.32 152.64 1156.14 148.465 1154.24 145.588C1152.43 142.433 1149.62 140.206 1145.9 139C1142.19 137.423 1137.48 136.309 1131.59 135.66V119.607L1131.14 119.7Z" fill="#181818"/>
<path d="M1498.31 112.646C1517.7 112.646 1534.37 115.801 1548.5 122.111C1562.63 128.143 1574.14 136.308 1583.02 146.701C1592.26 156.815 1598.96 168.599 1603.31 182.239C1607.57 195.509 1609.74 209.334 1609.74 223.902C1609.74 237.172 1607.57 250.441 1603.31 263.617C1599.05 276.886 1592.26 289.042 1583.02 300.084C1573.78 310.847 1562.18 319.662 1548.05 326.622C1534.19 333.21 1517.61 336.55 1498.31 336.55C1479.02 336.55 1462.26 333.395 1448.12 327.086C1434.26 320.776 1422.76 312.425 1413.61 302.032C1404.37 291.64 1397.66 279.67 1393.31 266.029C1389.06 252.482 1386.88 238.378 1386.88 223.902C1386.88 210.355 1389.06 196.9 1393.31 183.631C1397.57 170.084 1404.19 158.114 1413.15 147.629C1422.4 137.236 1433.99 128.885 1448.12 122.575C1462.26 115.987 1479.02 112.646 1498.31 112.646ZM1498.31 128.699C1488.53 128.699 1480.65 131.669 1474.85 137.7C1469.32 143.731 1465.06 151.247 1461.98 160.434C1458.9 169.62 1456.91 179.827 1456 191.24C1455.1 202.561 1454.65 213.51 1454.65 223.902C1454.65 235.223 1454.92 246.822 1455.55 258.421C1456.46 269.741 1458.27 280.226 1461.08 289.691C1464.16 298.877 1468.6 306.301 1474.4 311.961C1480.19 317.621 1488.26 320.498 1498.31 320.498C1508.37 320.498 1516.43 317.528 1522.23 311.497C1528.03 305.465 1532.37 297.764 1535.09 288.299C1538.17 278.835 1539.98 268.442 1540.62 257.029C1541.52 245.708 1541.98 234.666 1541.98 223.902C1541.98 213.139 1541.71 202.561 1541.07 191.24C1540.44 179.92 1538.81 169.62 1536 160.434C1533.19 151.247 1528.93 143.731 1523.13 137.7C1517.34 131.669 1509 128.699 1498.22 128.699H1498.31Z" fill="#181818"/>
</svg>
